<svg id="Layer_1" data-name="Layer 1" xmlns="http://www.w3.org/2000/svg" viewBox="0 0 1200 144.39"><defs><style>.cls-1{fill:#1a0dab;}</style></defs><path class="cls-1" d="M0,6c9.15,2.3,23.07,6.13,39.64,12,29,10.31,42.25,18.45,70.59,31.55,29.82,13.77,51.15,23.63,79.61,31.54,33.5,9.31,33.85,4,81.1,15,41.42,9.68,43.66,14.37,67.59,16.52,16.58,1.49,28.49.41,72.1-6,65.35-9.61,67.63-11.46,96.13-15,32.33-4,64.43-8.06,105.14-6C669.73,88.53,672,100,709.53,96.13c33.43-3.46,32.16-12.66,93.12-30,37.66-10.74,64.74-18.25,100.64-18,16.09.1,36.48,3.58,76.6,10.52,68.08,11.78,72.11,16,88.61,16.52,30.47,1,74.8-11.31,131.5-75.1V144.39H0Z"/></svg>